<svg xmlns="http://www.w3.org/2000/svg" xmlns:xlink="http://www.w3.org/1999/xlink" width="500" zoomAndPan="magnify" viewBox="0 0 375 374.999991" height="500" preserveAspectRatio="xMidYMid meet" version="1.0"><defs><clipPath id="06edec4789"><path d="M 118.242188 141 L 256.992188 141 L 256.992188 250.390625 L 118.242188 250.390625 Z M 118.242188 141 " clip-rule="nonzero"/></clipPath><clipPath id="fafdd43638"><path d="M 123 124.390625 L 230 124.390625 L 230 170 L 123 170 Z M 123 124.390625 " clip-rule="nonzero"/></clipPath></defs><path fill="#9a2300" d="M 231.644531 177.421875 C 223.367188 181.507812 213.167969 185.21875 201.242188 188.640625 L 201.242188 192.722656 C 201.242188 193.855469 201.226562 194.953125 201.195312 196.015625 L 203.191406 195.441406 C 212.761719 192.695312 222.507812 189.457031 231.609375 185.273438 C 231.625 182.847656 231.636719 180.230469 231.644531 177.421875 Z M 231.644531 177.421875 " fill-opacity="1" fill-rule="evenodd"/><g clip-path="url(#06edec4789)"><path fill="#ffbd59" d="M 231.644531 177.421875 C 251.085938 167.824219 259.933594 156.160156 255.679688 141.3125 C 255.625 147.597656 247.125 153.882812 230.960938 160.15625 C 222.917969 163.28125 212.972656 166.398438 201.234375 169.515625 C 201.234375 169.566406 201.238281 169.621094 201.242188 169.675781 C 194.734375 171.574219 188.6875 173.160156 183.148438 174.515625 C 177.570312 175.835938 170.90625 177.269531 163.121094 178.894531 C 155.296875 180.484375 150.414062 181.492188 148.476562 181.957031 C 139.066406 183.96875 131.703125 188 126.320312 193.964844 C 120.9375 199.96875 118.261719 207.175781 118.261719 215.65625 C 118.261719 221.933594 119.890625 227.746094 123.144531 233.128906 C 126.398438 238.511719 131.046875 242.734375 137.050781 245.875 C 143.054688 249.011719 150.027344 250.601562 158.007812 250.601562 C 166.6875 250.601562 174.550781 249.128906 181.5625 246.222656 C 188.535156 243.316406 195.777344 238.941406 203.292969 233.128906 C 206.78125 238.824219 210.035156 243.125 213.171875 246.105469 C 216.269531 249.089844 219.410156 250.601562 222.585938 250.601562 C 226.34375 250.601562 229.753906 249.28125 232.734375 246.6875 C 235.71875 244.09375 237.191406 241.1875 237.191406 238.011719 C 237.191406 236.191406 236.261719 232.121094 234.324219 225.808594 C 232.386719 219.492188 231.417969 213.410156 231.417969 207.601562 C 231.496094 201.402344 231.535156 195.746094 231.574219 190.671875 C 231.585938 189 231.597656 187.199219 231.609375 185.273438 C 222.507812 189.457031 212.761719 192.695312 203.191406 195.441406 L 201.195312 196.015625 C 200.933594 205.078125 199.554688 211.695312 197.058594 215.890625 C 194.617188 220.113281 190.820312 223.597656 185.628906 226.273438 C 180.4375 228.945312 174.78125 230.300781 168.660156 230.300781 C 162.929688 230.300781 158.28125 228.675781 154.714844 225.382812 C 151.152344 222.089844 149.371094 218.097656 149.371094 213.371094 C 149.371094 208.839844 150.878906 205.316406 153.902344 202.796875 C 156.925781 200.242188 160.101562 198.535156 163.433594 197.683594 C 166.765625 196.792969 172.769531 195.4375 181.445312 193.578125 C 190.085938 191.71875 196.710938 189.972656 201.242188 188.308594 L 201.242188 188.644531 C 213.167969 185.21875 223.367188 181.507812 231.644531 177.421875 Z M 231.644531 177.421875 " fill-opacity="1" fill-rule="evenodd"/></g><g clip-path="url(#fafdd43638)"><path fill="#666666" d="M 200.46875 162.394531 C 209.855469 159.886719 219.347656 157.074219 228.402344 153.5625 L 229.703125 153.058594 C 228.953125 149.894531 227.988281 147.039062 226.808594 144.496094 C 223.59375 137.523438 218.089844 132.445312 210.304688 129.230469 C 202.519531 126.015625 191.828125 124.390625 178.191406 124.390625 C 165.988281 124.390625 155.839844 126.054688 147.664062 129.386719 C 139.492188 132.71875 133.484375 136.941406 129.613281 142.09375 C 125.738281 147.246094 123.839844 152.554688 123.839844 157.976562 C 123.839844 161.460938 125.078125 164.328125 127.636719 166.539062 C 130.15625 168.785156 133.175781 169.90625 136.664062 169.90625 C 140.5 169.90625 143.015625 169.210938 144.214844 167.816406 C 145.378906 166.421875 147.394531 163.515625 150.222656 159.136719 C 153.050781 154.722656 156.457031 151.46875 160.449219 149.261719 C 164.398438 147.050781 170.328125 145.96875 178.191406 145.96875 C 187.371094 145.96875 193.375 147.863281 196.320312 151.699219 C 198.28125 154.261719 199.660156 157.832031 200.46875 162.398438 Z M 200.46875 162.394531 " fill-opacity="1" fill-rule="evenodd"/></g></svg>