<svg xmlns="http://www.w3.org/2000/svg" xmlns:xlink="http://www.w3.org/1999/xlink" width="500" zoomAndPan="magnify" viewBox="0 0 375 374.999991" height="500" preserveAspectRatio="xMidYMid meet" version="1.0"><defs><g/></defs><g fill="#ffbe37" fill-opacity="1"><g transform="translate(49.682323, 300.579997)"><g><path d="M 312.953125 -133.640625 C 313.171875 -133.867188 313.390625 -133.925781 313.609375 -133.8125 C 313.828125 -133.695312 313.9375 -133.53125 313.9375 -133.3125 C 314.15625 -133.09375 314.046875 -132.765625 313.609375 -132.328125 C 294.859375 -124.609375 275.832031 -117.273438 256.53125 -110.328125 C 237.238281 -103.378906 217.890625 -96.816406 198.484375 -90.640625 L 219.984375 22.828125 C 220.429688 26.128906 219 28.222656 215.6875 29.109375 C 215.03125 29.109375 214.367188 29.050781 213.703125 28.9375 C 213.046875 28.832031 212.382812 28.671875 211.71875 28.453125 C 199.8125 20.734375 187.898438 13.125 175.984375 5.625 C 164.078125 -1.875 152.0625 -9.265625 139.9375 -16.546875 C 129.125 -23.597656 117.101562 -30.925781 103.875 -38.53125 C 90.644531 -46.144531 78.070312 -52.378906 66.15625 -57.234375 C 63.738281 -58.335938 63.078125 -59.988281 64.171875 -62.1875 C 64.398438 -63.289062 65.394531 -64.066406 67.15625 -64.515625 C 86.78125 -67.816406 106.460938 -71.726562 126.203125 -76.25 C 145.941406 -80.769531 165.515625 -85.785156 184.921875 -91.296875 L 182.609375 -102.546875 C 174.671875 -138.941406 167.0625 -175.332031 159.78125 -211.71875 C 136.40625 -175.769531 111.757812 -140.375 85.84375 -105.53125 C 59.925781 -70.6875 31.53125 -38.15625 0.65625 -7.9375 C 0.4375 -7.71875 0.109375 -7.71875 -0.328125 -7.9375 C -0.546875 -8.375 -0.546875 -8.707031 -0.328125 -8.9375 C 14.222656 -26.800781 28.390625 -44.992188 42.171875 -63.515625 C 55.960938 -82.035156 69.253906 -100.78125 82.046875 -119.75 C 95.273438 -138.5 108.117188 -157.578125 120.578125 -176.984375 C 133.035156 -196.390625 145.222656 -215.796875 157.140625 -235.203125 C 158.460938 -237.628906 160.554688 -238.84375 163.421875 -238.84375 C 164.078125 -238.84375 164.738281 -238.734375 165.40625 -238.515625 C 166.070312 -238.296875 166.734375 -237.960938 167.390625 -237.515625 C 169.148438 -236.421875 170.253906 -234.769531 170.703125 -232.5625 C 175.109375 -211.382812 179.351562 -190.15625 183.4375 -168.875 C 187.519531 -147.59375 191.546875 -126.257812 195.515625 -104.875 L 197.5 -94.9375 C 217.125 -100.675781 236.582031 -106.742188 255.875 -113.140625 C 275.175781 -119.535156 294.203125 -126.367188 312.953125 -133.640625 Z M 80.390625 -59.21875 C 91.410156 -54.144531 102.269531 -48.628906 112.96875 -42.671875 C 123.664062 -36.722656 134.195312 -30.660156 144.5625 -24.484375 C 154.925781 -18.304688 165.347656 -12.128906 175.828125 -5.953125 C 186.304688 0.222656 196.613281 6.507812 206.75 12.90625 L 185.921875 -86.671875 C 168.492188 -81.378906 151.015625 -76.414062 133.484375 -71.78125 C 115.953125 -67.15625 98.253906 -62.96875 80.390625 -59.21875 Z M 80.390625 -59.21875 "/></g></g></g></svg>